<?xml version="1.0" encoding="UTF-8"?>
<svg version="1.1" xmlns="http://www.w3.org/2000/svg" width="865" height="239">
<path d="M0 0 C4.65512542 0.47552356 6.78698475 2.24750072 10.125 5.4375 C12.70626878 7.88146725 15.03756553 10.02504369 18 12 C16.67612068 15.46899686 15.15560274 18.69656175 13.375 21.953125 C4.89162159 37.7372881 -2.51310899 53.84208602 -9.60546875 70.29394531 C-13.07819855 78.34936106 -16.57696812 86.38548344 -20.28515625 94.3359375 C-20.75657547 95.35568161 -20.75657547 95.35568161 -21.23751831 96.39602661 C-24.21262176 102.70635213 -27.8747442 108.36791424 -32 114 C-32.65613281 114.90234375 -33.31226562 115.8046875 -33.98828125 116.734375 C-37.41609589 121.30479452 -37.41609589 121.30479452 -39 123 C-39.66 123 -40.32 123 -41 123 C-41 123.66 -41 124.32 -41 125 C-48.91277306 131.85553407 -56.42036045 135.29482161 -66.875 135.25 C-82.37201043 133.80444135 -96.06665503 124.42190374 -108 115 C-108.79664063 114.37480469 -109.59328125 113.74960938 -110.4140625 113.10546875 C-112.00157714 111.80573067 -113.51427757 110.41497374 -115 109 C-115 108.34 -115 107.68 -115 107 C-116.485 106.505 -116.485 106.505 -118 106 C-118 105.34 -118 104.68 -118 104 C-118.66 104 -119.32 104 -120 104 C-132.76998587 89.53441435 -145.77771093 67.62674228 -145.2890625 48.05859375 C-144.88216892 43.75321978 -144.19519979 41.97734526 -141 39 C-126.12500905 28.96745185 -107.47925896 29.55226237 -90.25 29.4375 C-79.00613053 29.3404687 -67.83777265 29.13566503 -56.63671875 28.078125 C-55.36933868 27.95895973 -55.36933868 27.95895973 -54.07635498 27.83738708 C-33.01339822 25.67597305 -14.94415043 17.96073324 -1.1796875 1.46875 C-0.79039062 0.9840625 -0.40109375 0.499375 0 0 Z " fill="#E96E1D" transform="translate(153,88)"/>
<path d="M0 0 C1.52335315 1.16337455 3.04470877 2.32937841 4.5625 3.5 C5.5525 4.16 6.5425 4.82 7.5625 5.5 C7.24057436 10.81177312 4.28894298 14.02337442 0.5625 17.5 C-19.9111456 34.52670382 -44.96908268 35.54292586 -70.4750061 36.04638672 C-80.68138807 36.25239659 -90.78249464 36.67106628 -100.9375 37.8125 C-101.93740967 37.91820313 -102.93731934 38.02390625 -103.9675293 38.1328125 C-111.13396389 39.01850376 -117.68196006 40.97884906 -124.4375 43.5 C-125.80745117 43.94533081 -125.80745117 43.94533081 -127.20507812 44.3996582 C-129.87262375 45.39404154 -129.87262375 45.39404154 -130.75 49.125 C-130.976875 50.23875 -131.20375 51.3525 -131.4375 52.5 C-132.0975 52.5 -132.7575 52.5 -133.4375 52.5 C-135.25896664 46.03679371 -135.59907006 40.52491415 -134.8125 33.875 C-134.71549805 33.00399658 -134.61849609 32.13299316 -134.51855469 31.2355957 C-133.56653242 23.39723106 -131.9120895 16.01360507 -129.4375 8.5 C-129.23141113 7.86191406 -129.02532227 7.22382812 -128.81298828 6.56640625 C-124.78750044 -5.59737151 -118.67105047 -14.92001045 -107.1875 -21.25390625 C-71.90800723 -37.23992641 -29.54528725 -21.37483429 0 0 Z " fill="#2E84C7" transform="translate(139.4375,74.5)"/>
<path d="M0 0 C3.458176 -0.0868329 6.91607344 -0.14033282 10.375 -0.1875 C11.35984375 -0.21263672 12.3446875 -0.23777344 13.359375 -0.26367188 C14.77089844 -0.27817383 14.77089844 -0.27817383 16.2109375 -0.29296875 C17.08024902 -0.3086792 17.94956055 -0.32438965 18.84521484 -0.34057617 C19.55629395 -0.22818604 20.26737305 -0.1157959 21 0 C23.55781522 3.83672283 23.25306456 6.94535987 23.1953125 11.38671875 C23.1924826 12.20372757 23.18965271 13.02073639 23.18673706 13.86250305 C23.17554541 16.47098459 23.1504429 19.0791223 23.125 21.6875 C23.11496888 23.45637525 23.10584326 25.22525588 23.09765625 26.99414062 C23.07560942 31.32955949 23.0410867 35.66472145 23 40 C23.67619385 39.58282715 24.3523877 39.1656543 25.04907227 38.73583984 C25.94166748 38.19137207 26.8342627 37.6469043 27.75390625 37.0859375 C28.6363501 36.54501465 29.51879395 36.0040918 30.42797852 35.44677734 C39.1345157 30.54929852 49.1531978 30.98324422 58.5625 33.5625 C69.18187669 37.17787498 76.68601425 43.05040965 82 53 C88.38116288 68.25253567 88.89072217 83.75034074 82.74609375 99.140625 C77.75744601 109.96068932 71.10867395 116.59809349 60 121 C50.31178433 123.76770542 38.43660167 122.97464067 29.1640625 119.265625 C26.68988526 117.81863325 24.93437421 116.10219663 23 114 C22.67 116.31 22.34 118.62 22 121 C14.41 121 6.82 121 -1 121 C-2.20113677 118.59772647 -2.12836662 117.1034901 -2.13371277 114.42056274 C-2.13797775 113.45596634 -2.14224274 112.49136993 -2.14663696 111.49754333 C-2.14595718 109.90475304 -2.14595718 109.90475304 -2.14526367 108.27978516 C-2.14862228 107.16425766 -2.1519809 106.04873016 -2.15544128 104.8993988 C-2.16497362 101.19594217 -2.16689557 97.49253065 -2.16796875 93.7890625 C-2.17117983 91.22317486 -2.17454379 88.6572874 -2.17805481 86.09140015 C-2.18405186 80.70611061 -2.18593684 75.32083909 -2.18530273 69.93554688 C-2.18470211 63.71099653 -2.19525014 57.4865329 -2.2110464 51.26200449 C-2.22569744 45.27551499 -2.2292908 39.28907255 -2.22869301 33.30256271 C-2.22987548 30.75481182 -2.23431214 28.20706033 -2.24202538 25.65932083 C-2.25179391 22.09914149 -2.24895948 18.53918666 -2.24291992 14.97900391 C-2.24853943 13.92119217 -2.25415894 12.86338043 -2.25994873 11.77351379 C-2.25575424 10.80327774 -2.25155975 9.83304169 -2.24723816 8.83340454 C-2.24778293 7.9916398 -2.24832769 7.14987507 -2.24888897 6.28260231 C-1.97713126 3.79026693 -1.24976495 2.15529563 0 0 Z M26.75 59.25 C21.6624794 67.24467522 21.07587899 74.65377616 22 84 C23.4338241 90.36686178 25.96024876 94.95157043 31.22265625 98.87890625 C37.04318321 102.55031556 42.44170109 102.43596741 49 101 C55.40309313 98.04472625 58.92245443 92.15509113 62 86 C62.74810757 75.82225753 61.82373414 66.00744312 55 58 C50.88406924 54.14599211 47.063082 52.67672228 41.4375 52.4375 C35.02624664 52.75717468 31.3244086 54.6755914 26.75 59.25 Z " fill="#F1F1F1" transform="translate(764,53)"/>
<path d="M0 0 C0.91644287 0.00523682 1.83288574 0.01047363 2.77709961 0.01586914 C3.76645508 0.0190918 4.75581055 0.02231445 5.77514648 0.02563477 C6.81606445 0.03401367 7.85698242 0.04239258 8.92944336 0.05102539 C10.49662109 0.05779297 10.49662109 0.05779297 12.09545898 0.06469727 C14.68600996 0.07652627 17.27644895 0.0930085 19.86694336 0.11352539 C20.91312343 3.2520656 21.06842267 5.66366264 21.18334961 8.96118164 C21.22524414 10.12456055 21.26713867 11.28793945 21.31030273 12.48657227 C21.34961914 13.7040918 21.38893555 14.92161133 21.42944336 16.17602539 C21.47262695 17.36647461 21.51581055 18.55692383 21.56030273 19.78344727 C21.79510826 26.56299107 21.92840755 33.33002494 21.86694336 40.11352539 C22.81569336 39.35040039 23.76444336 38.58727539 24.74194336 37.80102539 C32.90316011 32.02084773 42.17211125 30.98163372 51.84741211 32.61743164 C61.77502781 34.81937429 70.65180244 38.79809547 76.86694336 47.11352539 C85.17266862 61.01842593 87.8426042 74.48617441 84.55053711 90.49243164 C81.59454931 101.82653345 75.21226768 111.1340073 65.49194336 117.64086914 C58.87377321 121.35374138 53.86318124 122.72111563 46.30444336 122.73852539 C45.43271484 122.74303711 44.56098633 122.74754883 43.6628418 122.75219727 C35.10669256 122.53224484 28.99421049 119.73916896 21.86694336 115.11352539 C21.53694336 117.09352539 21.20694336 119.07352539 20.86694336 121.11352539 C17.0544591 121.14239775 13.24200266 121.16028031 9.42944336 121.17602539 C8.34083008 121.1844043 7.2522168 121.1927832 6.13061523 121.20141602 C5.09614258 121.20463867 4.06166992 121.20786133 2.99584961 121.21118164 C2.03751221 121.21641846 1.0791748 121.22165527 0.09179688 121.22705078 C-2.13305664 121.11352539 -2.13305664 121.11352539 -3.13305664 120.11352539 C-3.23107317 118.57231699 -3.2593751 117.02662171 -3.26004028 115.4822998 C-3.26286011 114.48108597 -3.26567993 113.47987213 -3.26858521 112.44831848 C-3.26656097 111.34074692 -3.26453674 110.23317535 -3.26245117 109.09204102 C-3.26420349 107.93282639 -3.26595581 106.77361176 -3.26776123 105.57926941 C-3.27218259 101.72608976 -3.26924075 97.87295556 -3.26586914 94.01977539 C-3.2665421 91.35559023 -3.26751034 88.69140649 -3.26876831 86.02722168 C-3.27058986 80.43505353 -3.26818409 74.84289857 -3.26342773 69.25073242 C-3.25798514 62.77680037 -3.25974781 56.30289981 -3.26525414 49.82896852 C-3.2697857 44.27993134 -3.27043561 38.73090365 -3.26781547 33.18186522 C-3.26625293 29.86357231 -3.26644838 26.54529753 -3.26935196 23.227005 C-3.27187681 19.52965125 -3.26804025 15.83235892 -3.26245117 12.13500977 C-3.2644754 11.0274382 -3.26649963 9.91986664 -3.26858521 8.7787323 C-3.26576538 7.77751846 -3.26294556 6.77630463 -3.26004028 5.74475098 C-3.25966326 4.86942467 -3.25928623 3.99409836 -3.25889778 3.09224701 C-3.08187562 0.3087568 -2.7857735 0.14826424 0 0 Z M23.42944336 61.98852539 C19.7791178 69.25672917 19.782641 81.45995328 21.93725586 89.14868164 C24.37454222 94.29975324 28.45658623 99.08831033 33.86694336 101.11352539 C40.34117887 102.01489151 46.26663476 102.07852244 51.92944336 98.55102539 C57.25642379 94.40673236 59.79029735 89.79070614 60.86694336 83.11352539 C61.6852649 73.62904462 60.63601798 65.65574352 54.42944336 58.17602539 C48.58842347 53.4747167 44.57711824 52.45091357 37.10131836 52.63696289 C30.65449904 53.58685656 27.48586701 57.2040257 23.42944336 61.98852539 Z " fill="#F2F2F2" transform="translate(464.133056640625,52.886474609375)"/>
<path d="M0 0 C0.9583374 0.00523682 1.9166748 0.01047363 2.90405273 0.01586914 C4.45576172 0.02070312 4.45576172 0.02070312 6.03881836 0.02563477 C7.12743164 0.03401367 8.21604492 0.04239258 9.33764648 0.05102539 C10.97636719 0.05779297 10.97636719 0.05779297 12.64819336 0.06469727 C15.35723144 0.07652713 18.06616248 0.09300996 20.77514648 0.11352539 C21.63010801 8.67287824 21.92956263 17.13920499 21.90014648 25.73852539 C21.90594727 27.49229492 21.90594727 27.49229492 21.91186523 29.28149414 C21.91057617 30.39395508 21.90928711 31.50641602 21.90795898 32.65258789 C21.90683105 33.65499512 21.90570312 34.65740234 21.90454102 35.69018555 C21.77514648 38.11352539 21.77514648 38.11352539 20.77514648 40.11352539 C21.41581055 39.70360352 22.05647461 39.29368164 22.71655273 38.87133789 C32.43459584 32.81747497 41.0126617 30.59350252 52.45483398 32.57836914 C60.65339884 34.73655833 68.1232948 38.94116295 72.78295898 46.18774414 C76.32755694 53.0676134 77.90515915 60.3976096 77.88867188 68.09716797 C77.88855858 69.86843803 77.88855858 69.86843803 77.88844299 71.67549133 C77.88328171 72.94023788 77.87812042 74.20498444 77.87280273 75.50805664 C77.87138779 76.81054855 77.86997284 78.11304047 77.86851501 79.45500183 C77.86471003 82.90568993 77.85489713 86.35633547 77.84381104 89.80700684 C77.83355337 93.33300196 77.82900809 96.859004 77.82397461 100.38500977 C77.81327293 107.29453238 77.79622092 114.20402684 77.77514648 121.11352539 C73.96266222 121.14239775 70.15020579 121.16028031 66.33764648 121.17602539 C65.2490332 121.1844043 64.16041992 121.1927832 63.03881836 121.20141602 C62.0043457 121.20463867 60.96987305 121.20786133 59.90405273 121.21118164 C58.94571533 121.21641846 57.98737793 121.22165527 57 121.22705078 C54.77514648 121.11352539 54.77514648 121.11352539 53.77514648 120.11352539 C53.66801875 118.54550035 53.62892322 116.9727613 53.61743164 115.40112305 C53.60716949 114.39562408 53.59690735 113.39012512 53.58633423 112.35415649 C53.5790329 111.25638885 53.57173157 110.15862122 53.56420898 109.02758789 C53.5361123 106.71117491 53.5074477 104.39476877 53.47827148 102.07836914 C53.43720108 98.42065831 53.40032462 94.76307119 53.3737793 91.10522461 C53.34595768 87.57907461 53.30005379 84.05350863 53.25170898 80.52758789 C53.24845612 79.45006256 53.24520325 78.37253723 53.24185181 77.26235962 C53.13447673 70.54094122 52.93883098 63.1872346 49.77514648 57.11352539 C47.29298053 55.82562368 47.29298053 55.82562368 44.77514648 55.11352539 C44.44514648 54.78352539 44.11514648 54.45352539 43.77514648 54.11352539 C36.65395384 53.36198084 31.50466709 53.69701992 25.77514648 58.11352539 C20.1526184 66.01978816 21.7337067 76.69459268 21.80639648 85.98071289 C21.80639648 93.02799785 21.52071459 100.07136549 21.27514648 107.11352539 C21.2511377 107.80379822 21.22712891 108.49407104 21.20239258 109.20526123 C21.06356126 113.17482165 20.9198625 117.14417194 20.77514648 121.11352539 C12.85514648 121.11352539 4.93514648 121.11352539 -3.22485352 121.11352539 C-3.24740087 105.48473855 -3.26583288 89.85596453 -3.27666569 74.22716618 C-3.28182856 66.97093691 -3.28887109 59.71471843 -3.30029297 52.45849609 C-3.31024007 46.13618683 -3.31670701 39.81388538 -3.31894201 33.49156851 C-3.32024907 30.14195789 -3.32333464 26.79236965 -3.33058357 23.44276619 C-3.33778972 19.70938894 -3.33884464 15.97605881 -3.33837891 12.24267578 C-3.34197418 11.12418243 -3.34556946 10.00568909 -3.34927368 8.853302 C-3.34789902 7.84222885 -3.34652435 6.8311557 -3.34510803 5.78944397 C-3.34602983 4.9054445 -3.34695162 4.02144503 -3.34790134 3.11065769 C-3.17212306 0.25768174 -2.85705092 0.1457839 0 0 Z " fill="#F2F2F1" transform="translate(567.224853515625,52.886474609375)"/>
<path d="M0 0 C2.86612814 1.10235698 5.04063189 2.72703119 7.3125 4.75 C7.84488281 5.21921875 8.37726563 5.6884375 8.92578125 6.171875 C10.58554991 8.99649948 9.77234728 10.88778287 9 14 C8.04169165 17.21831886 6.99234882 20.39812233 5.9375 23.5859375 C4.02368253 30.55542279 3.86157128 37.32765636 3.9375 44.5 C3.94201172 45.32242188 3.94652344 46.14484375 3.95117188 46.9921875 C3.96281511 48.99482396 3.98074444 50.99742227 4 53 C4.13051758 52.33057373 4.26103516 51.66114746 4.39550781 50.97143555 C5.00462095 47.87493265 5.62723685 44.78128534 6.25 41.6875 C6.45496094 40.63498047 6.65992188 39.58246094 6.87109375 38.49804688 C9.93970088 23.38748148 9.93970088 23.38748148 13 18 C15.12988281 17.2019043 15.12988281 17.2019043 17 17 C28.3932066 33.887264 36.59904896 49.85812363 33.60546875 70.75390625 C31.80906176 77.23256112 27.40009772 82.07254975 23 87 C22.47664063 87.60585937 21.95328125 88.21171875 21.4140625 88.8359375 C2.20892905 109.60087874 -28.00941196 119.74373481 -55.546875 120.9140625 C-61.07490152 121.07748745 -66.51599781 120.69894146 -72 120 C-72 119.01 -72 118.02 -72 117 C-71.2265625 116.6596875 -70.453125 116.319375 -69.65625 115.96875 C-43.99714361 104.02837376 -34.35413217 73.23563085 -24.13183594 48.79077148 C-6.36042894 6.36042894 -6.36042894 6.36042894 0 0 Z " fill="#BA244C" transform="translate(176,108)"/>
<path d="M0 0 C0.33 -2.31 0.66 -4.62 1 -7 C8.59 -7 16.18 -7 24 -7 C25.12529278 3.12763505 25.12529278 3.12763505 25.12939453 7.3984375 C25.13254669 8.35814453 25.13569885 9.31785156 25.13894653 10.30664062 C25.13591019 11.82547852 25.13591019 11.82547852 25.1328125 13.375 C25.13376923 14.45716797 25.13472595 15.53933594 25.13571167 16.65429688 C25.13638971 18.94368549 25.13456174 21.23307606 25.13037109 23.52246094 C25.12510149 26.93429189 25.13028508 30.34598606 25.13671875 33.7578125 C25.14065899 45.22184443 24.98544155 56.66848978 24.5546875 68.125 C24.51594513 69.20458984 24.47720276 70.28417969 24.43728638 71.39648438 C24.39594574 72.38197266 24.3546051 73.36746094 24.31201172 74.3828125 C24.25821854 75.68822998 24.25821854 75.68822998 24.20333862 77.02001953 C24 79 24 79 23 80 C21.46218409 80.09902107 19.91990556 80.13079567 18.37890625 80.1328125 C17.44369141 80.13410156 16.50847656 80.13539063 15.54492188 80.13671875 C14.06862305 80.13091797 14.06862305 80.13091797 12.5625 80.125 C11.09200195 80.13080078 11.09200195 80.13080078 9.59179688 80.13671875 C8.18704102 80.13478516 8.18704102 80.13478516 6.75390625 80.1328125 C5.45948608 80.13112061 5.45948608 80.13112061 4.13891602 80.12939453 C2 80 2 80 0 79 C0 77.02 0 75.04 0 73 C-0.89203125 73.49371094 -1.7840625 73.98742187 -2.703125 74.49609375 C-3.88528608 75.14346768 -5.06758504 75.79058989 -6.25 76.4375 C-6.83652344 76.76298828 -7.42304688 77.08847656 -8.02734375 77.42382812 C-16.90446047 82.26135803 -27.64462995 82.48219666 -37.43359375 80.19921875 C-47.32508254 76.45614562 -55.52700941 69.63413357 -60 60 C-60.35707031 59.24332031 -60.71414063 58.48664063 -61.08203125 57.70703125 C-66.61434552 45.72360846 -67.5067636 30.25929544 -62.9375 17.75 C-62.024123 15.80112316 -61.04683015 13.8805651 -60 12 C-59.50371094 11.08992188 -59.00742187 10.17984375 -58.49609375 9.2421875 C-52.88047895 0.1760142 -44.05994504 -4.98201649 -34 -8 C-20.97095345 -10.5143774 -10.48895101 -8.00268114 0 0 Z M-33.8515625 16.48046875 C-39.11537957 21.93876182 -41.05906472 29.04919294 -41.375 36.5 C-41.13233844 42.72096009 -39.45930918 48.51376955 -36.3125 53.875 C-31.23132427 58.54418851 -24.96490672 61.28910934 -18 61 C-11.32263142 60.00648149 -7.61893418 57.19911782 -3.41015625 52.03515625 C0.78804176 45.97626106 1.75703944 39.30476655 1 32 C-0.69154373 25.02384033 -3.25010774 18.61563408 -9.078125 14.0859375 C-17.53430881 9.3078499 -26.41145414 10.53152135 -33.8515625 16.48046875 Z " fill="#F9F9F9" transform="translate(329,94)"/>
<path d="M0 0 C1.54204102 -0.0309375 1.54204102 -0.0309375 3.11523438 -0.0625 C4.09685547 -0.06765625 5.07847656 -0.0728125 6.08984375 -0.078125 C7.44710571 -0.09214355 7.44710571 -0.09214355 8.83178711 -0.10644531 C9.56792236 0.01118164 10.30405762 0.12880859 11.0625 0.25 C13.1448036 3.3734554 13.30671917 3.99822818 13.2578125 7.53100586 C13.25120605 8.3929808 13.24459961 9.25495575 13.23779297 10.14305115 C13.22119629 11.07424271 13.20459961 12.00543427 13.1875 12.96484375 C13.17992676 13.93096085 13.17235352 14.89707794 13.16455078 15.89247131 C13.13194942 20.02300988 13.07620322 24.15315134 13.02148438 28.28344727 C11.96422368 46.39861808 11.96422368 46.39861808 16.875 63.375 C21.1675688 67.05434469 25.18296558 67.7367212 30.71875 67.54296875 C34.89442141 67.02100982 37.84076454 65.99255329 41.0625 63.25 C46.48372724 54.32415189 45.49215117 43.87992882 45.25 33.875 C45.19305326 30.65895681 45.14716931 27.44283688 45.10546875 24.2265625 C45.09442108 23.45620667 45.08337341 22.68585083 45.07199097 21.89215088 C45.0039547 15.32818722 45.14286129 8.76045815 46.0625 2.25 C46.3925 1.92 46.7225 1.59 47.0625 1.25 C54.6525 1.25 62.2425 1.25 70.0625 1.25 C70.0625 29.96 70.0625 58.67 70.0625 88.25 C62.4725 88.25 54.8825 88.25 47.0625 88.25 C46.4025 85.94 45.7425 83.63 45.0625 81.25 C44.44375 81.8275 43.825 82.405 43.1875 83 C36.05939361 88.1322366 29.61035915 89.62004147 20.9375 89.6875 C20.18573486 89.69749023 19.43396973 89.70748047 18.65942383 89.71777344 C9.6595202 89.57981368 3.54652908 86.55645527 -2.9609375 80.41796875 C-11.27913495 71.29425416 -12.40147881 58.53471261 -12.625 46.75 C-12.65770996 45.51693115 -12.69041992 44.2838623 -12.72412109 43.01342773 C-12.81274158 39.42570462 -12.87999948 35.83834334 -12.9375 32.25 C-12.95409668 31.3130127 -12.97069336 30.37602539 -12.98779297 29.41064453 C-13.13431009 20.03173967 -13.21350343 10.56009912 -11.9375 1.25 C-9.50908891 -1.17841109 -3.26195062 0.01629957 0 0 Z " fill="#F0F0F0" transform="translate(673.9375,85.75)"/>
<path d="M0 0 C3.30203518 2.86631353 6.14787008 5.41907074 8.58203125 9.0703125 C8.59765625 11.45703125 8.59765625 11.45703125 7.58203125 14.0703125 C5.50710724 15.9137125 3.62456005 17.37536194 1.33203125 18.8828125 C0.75839844 19.28951172 0.18476563 19.69621094 -0.40625 20.11523438 C-3.00760668 21.87811276 -5.1050304 23.02200074 -8.2265625 23.50390625 C-8.94972656 23.36082031 -9.67289062 23.21773437 -10.41796875 23.0703125 C-11.01609375 22.1628125 -11.61421875 21.2553125 -12.23046875 20.3203125 C-15.46607478 15.5131264 -19.54503661 14.10162147 -24.85546875 12.1953125 C-31.09962039 11.89071974 -37.02090602 13.54277002 -41.91015625 17.48828125 C-46.93485615 22.76031094 -47.68603838 28.53791596 -47.85546875 35.6328125 C-47.62762897 42.54395247 -47.39203914 47.90416673 -42.54296875 53.06640625 C-36.42651769 58.65441393 -31.95466535 59.47684218 -23.71875 59.421875 C-18.93225918 58.91207124 -16.05166369 57.09553494 -12.41796875 54.0703125 C-11.42796875 53.3071875 -10.43796875 52.5440625 -9.41796875 51.7578125 C-8.42796875 50.9225 -8.42796875 50.9225 -7.41796875 50.0703125 C-3.45160204 51.55678017 0.19823289 53.37827385 3.89453125 55.4453125 C4.96316406 56.03054687 6.03179687 56.61578125 7.1328125 57.21875 C7.94105469 57.82976562 8.74929688 58.44078125 9.58203125 59.0703125 C9.58203125 64.20617112 8.05908334 65.42020423 4.6953125 69.046875 C-5.34271361 78.65814584 -16.40789641 81.68365398 -29.99658203 81.54296875 C-43.34741881 81.08042799 -54.57376987 75.89738527 -63.78515625 66.171875 C-71.90074204 55.72645597 -74.55299047 43.06000549 -73.41796875 30.0703125 C-71.41853302 17.28400503 -65.93372738 6.45713148 -55.51171875 -1.359375 C-39.41410489 -12.15499699 -15.36670636 -12.26357503 0 0 Z " fill="#F1F1F1" transform="translate(440.41796875,93.9296875)"/>
<path d="M0 0 C9.03450563 7.80759746 15.9490827 16.32274406 18.53125 28.1875 C18.74492629 31.12258625 18.71635994 34.05784163 18.71875 37 C18.73099609 37.78181641 18.74324219 38.56363281 18.75585938 39.36914062 C18.76837576 44.36317822 18.13047322 48.45304074 16.53125 53.1875 C11.39610183 52.70174274 8.03576039 50.08386514 3.90625 47.25 C-23.15231918 29.27097253 -54.48300763 15.86380846 -87.46875 22.1875 C-91.87981304 23.32844706 -96.16056949 24.71314489 -100.46875 26.1875 C-101.79769538 26.53791843 -103.12947024 26.87892485 -104.46875 27.1875 C-104.46875 23.1875 -104.46875 23.1875 -102.484375 20.70703125 C-74.13024565 -7.04637502 -35.08879378 -27.0564193 0 0 Z " fill="#15BCC1" transform="translate(137.46875,19.8125)"/>
<path d="M0 0 C-0.97582031 0.47050781 -1.95164062 0.94101563 -2.95703125 1.42578125 C-4.24234508 2.05436539 -5.52749267 2.68328952 -6.8125 3.3125 C-7.45509766 3.62123047 -8.09769531 3.92996094 -8.75976562 4.24804688 C-13.4708286 6.40827009 -13.4708286 6.40827009 -17 10 C-19.45570241 25.37579435 -11.34883285 41.47675073 -3 54 C-0.57186019 54.75068444 1.63447614 55.26950197 4.125 55.6875 C4.86129639 55.81415039 5.59759277 55.94080078 6.35620117 56.07128906 C20.36032613 58.20125949 39.35280653 59.54906449 53 55 C55.22734051 54.73422137 57.4569184 54.48704374 59.6875 54.25 C76.4339189 52.19958481 93.43408781 45.54963491 107.92578125 37.1015625 C110 36 110 36 112 36 C111.61183262 43.15045168 108.49312681 48.90049722 105.375 55.25 C104.86582031 56.31863281 104.35664063 57.38726562 103.83203125 58.48828125 C99.00430918 68.44621424 93.40202947 77.56344388 86.3828125 86.125 C84.80996511 88.05580051 84.80996511 88.05580051 84 91 C76.12736651 97.87293399 68.55551535 101.29471818 58.125 101.25 C42.62798957 99.80444135 28.93334497 90.42190374 17 81 C16.20335937 80.37480469 15.40671875 79.74960938 14.5859375 79.10546875 C12.99842286 77.80573067 11.48572243 76.41497374 10 75 C10 74.34 10 73.68 10 73 C8.515 72.505 8.515 72.505 7 72 C7 71.34 7 70.68 7 70 C6.34 70 5.68 70 5 70 C-7.76998587 55.53441435 -20.77771093 33.62674228 -20.2890625 14.05859375 C-19.88216892 9.75321978 -19.19519979 7.97734526 -16 5 C-4.73405165 -1.92320848 -4.73405165 -1.92320848 0 0 Z " fill="#D1336E" transform="translate(28,122)"/>
<path d="M0 0 C20.81780459 0.08310501 43.72500128 10.23138411 59.203125 23.953125 C63.76102234 29.14516457 62.46398132 37.31601145 62.17041016 43.86279297 C61.00445132 58.48572088 53.78254329 74.39176886 45 86 C40.94534268 85.18161414 39.29137299 83.58055519 36.4375 80.5625 C34.00163453 78.00340357 31.95021579 75.96681053 29 74 C29.30035156 72.79085937 29.60070312 71.58171875 29.91015625 70.3359375 C33.55075607 54.98148732 34.62251894 40.5641955 26.4609375 26.3125 C19.99805213 16.63292738 12.59646978 10.38302228 2.5625 4.76171875 C1.716875 4.18035156 0.87125 3.59898438 0 3 C0 2.01 0 1.02 0 0 Z " fill="#E56829" transform="translate(130,6)"/>
<path d="M0 0 C4.11144852 1.58132635 7.52016662 4.37431257 10 8 C9.9380213 11.22289225 9.42666967 13.14666066 8 16 C7.34 16 6.68 16 6 16 C5.80422363 17.01030273 5.80422363 17.01030273 5.60449219 18.04101562 C-1.66622292 55.40052196 -1.66622292 55.40052196 -7 67 C-7.35707031 67.80566406 -7.71414062 68.61132812 -8.08203125 69.44140625 C-11.25914628 76.23129422 -15.42529023 82.08251105 -20 88 C-20.51304687 88.66902344 -21.02609375 89.33804688 -21.5546875 90.02734375 C-22.64573973 91.39922895 -23.81398105 92.70933232 -25 94 C-25.66 94 -26.32 94 -27 94 C-27 94.66 -27 95.32 -27 96 C-29.00556347 97.66723893 -30.99860378 99.18722176 -33.125 100.6875 C-34.05940918 101.35036011 -34.05940918 101.35036011 -35.01269531 102.02661133 C-41.27567207 106.36125051 -47.89227931 110.21915447 -55 113 C-55.66 112.67 -56.32 112.34 -57 112 C-55.03048922 108.86337172 -53.28697998 106.27942788 -50.625 103.6875 C-44.42961383 97.34460464 -38.75742708 88.77866827 -37.1875 79.9375 C-36.24727944 75.25206756 -34.37846058 71.26742398 -32.29931641 66.98168945 C-29.14898489 60.44141267 -26.28201111 53.78597487 -23.41842651 47.11697388 C-5.56334786 5.56334786 -5.56334786 5.56334786 0 0 Z " fill="#DE2710" transform="translate(176,108)"/>
<path d="M0 0 C7.10184047 6.14183745 13.20376957 11.65742463 14.54296875 21.19921875 C14.89359375 21.90046875 15.24421875 22.60171875 15.60546875 23.32421875 C17.92013072 27.95354269 17.67882438 33.3225694 17.66796875 38.38671875 C17.67183594 40.20236328 17.67183594 40.20236328 17.67578125 42.0546875 C17.54296875 45.19921875 17.54296875 45.19921875 16.54296875 48.19921875 C15.88296875 48.19921875 15.22296875 48.19921875 14.54296875 48.19921875 C14.21296875 48.85921875 13.88296875 49.51921875 13.54296875 50.19921875 C10.54296875 48.19921875 10.54296875 48.19921875 9.16796875 45.38671875 C7.36602088 41.85212869 5.37586914 39.97318224 2.54296875 37.19921875 C1.46941954 36.04305 0.40342958 34.87983153 -0.65625 33.7109375 C-13.88667493 19.16257542 -28.71817025 6.5596772 -48.45703125 2.19921875 C-49.0595874 2.03172119 -49.66214355 1.86422363 -50.28295898 1.69165039 C-52.62909349 1.16024631 -54.82025279 0.99061266 -57.22265625 0.8828125 C-58.11210938 0.84091797 -59.0015625 0.79902344 -59.91796875 0.75585938 C-60.83835937 0.71654297 -61.75875 0.67722656 -62.70703125 0.63671875 C-63.64289063 0.59353516 -64.57875 0.55035156 -65.54296875 0.50585938 C-67.84751766 0.40003825 -70.15216964 0.29795318 -72.45703125 0.19921875 C-71.46703125 -0.13078125 -70.47703125 -0.46078125 -69.45703125 -0.80078125 C-69.45703125 -1.79078125 -69.45703125 -2.78078125 -69.45703125 -3.80078125 C-43.67582716 -15.71813291 -23.36517312 -17.99224375 0 0 Z " fill="#54C1C3" transform="translate(137.45703125,19.80078125)"/>
<path d="M0 0 C5.48733076 0.92844208 7.81747055 4.71077563 11 9 C20.46174885 23.16750359 31 41.48425681 31 59 C28.40125125 58.55450021 26.19408057 58.0942677 23.8125 56.9375 C16.90335262 54.63445087 11.27332335 55.52946022 4.75 58.625 C-0.00953167 61.20103518 -3.48837257 63.90310133 -7 68 C-11.59868019 65.93466354 -14.85727256 62.91132926 -18 59 C-18.75 56.5625 -18.75 56.5625 -18 54 C-16.87415609 52.19182644 -15.73939312 50.38865127 -14.5625 48.61328125 C-5.63846016 33.68782461 -1.69026317 17.12503478 0 0 Z " fill="#F07510" transform="translate(199,42)"/>
<path d="M0 0 C5.34213432 2.40679196 7.1107683 6.05456094 9.625 11.0625 C10.21365845 12.21975586 10.21365845 12.21975586 10.81420898 13.40039062 C16.82634264 25.45253295 19.66470275 38.56371465 16 51.9375 C13.77970773 57.35208067 9.85767239 61.67998485 6 66 C5.47664063 66.60585937 4.95328125 67.21171875 4.4140625 67.8359375 C-11.00015224 84.50206816 -33.59289559 94.39949254 -56 96 C-55.49082031 95.7628125 -54.98164063 95.525625 -54.45703125 95.28125 C-52.42923456 94.22382979 -50.515508 93.10962844 -48.57421875 91.90625 C-47.94193359 91.51566406 -47.30964844 91.12507813 -46.65820312 90.72265625 C-45.35285219 89.91279531 -44.05070485 89.09774595 -42.75195312 88.27734375 C-38.56501356 85.70663922 -34.78427643 84.13881871 -30 83 C-30 82.34 -30 81.68 -30 81 C-29.278125 80.5875 -28.55625 80.175 -27.8125 79.75 C-25.05760154 78.03584096 -23.37062486 76.26303106 -21.40625 73.6953125 C-20 72 -20 72 -17.59375 69.68359375 C-10.79853775 62.65300517 -6.47381222 53.5016221 -3.0078125 44.4609375 C-2 42 -2 42 0 39 C1.40601447 31.90457058 1.15324195 24.45169846 1.125 17.25 C1.12886719 16.24839844 1.13273437 15.24679688 1.13671875 14.21484375 C1.13029605 9.36570876 1.02118736 4.765541 0 0 Z " fill="#D1377E" transform="translate(193,129)"/>
<path d="M0 0 C0.99 0.33 1.98 0.66 3 1 C-13.67261587 16.65373379 -38.92202148 17.95324058 -60.58105469 18.33047485 C-72.6007891 18.55758831 -84.54543271 18.97401621 -96.5 20.3125 C-97.49894287 20.41804199 -98.49788574 20.52358398 -99.52709961 20.63232422 C-106.69458108 21.51845904 -113.24339299 23.47845083 -120 26 C-120.91330078 26.29688721 -121.82660156 26.59377441 -122.76757812 26.8996582 C-125.43512375 27.89404154 -125.43512375 27.89404154 -126.3125 31.625 C-126.539375 32.73875 -126.76625 33.8525 -127 35 C-127.66 35 -128.32 35 -129 35 C-127.95412429 26.6329943 -123.41441633 20.2368237 -117 15 C-111.87096774 12 -111.87096774 12 -109 12 C-109 11.34 -109 10.68 -109 10 C-91.96709662 5.13493492 -73.579089 2.2099116 -56 6 C-47.28994447 7.01805844 -38.51002924 7.15250946 -29.75 7.25 C-28.74477295 7.2713501 -27.7395459 7.2927002 -26.70385742 7.31469727 C-17.34071484 7.35703656 -9.42342453 4.94287957 -1 1 C-0.67 0.67 -0.34 0.34 0 0 Z " fill="#9A5832" transform="translate(135,92)"/>
<path d="M0 0 C3.13919919 2.27438726 4.77655 4.6457985 5.80078125 8.3046875 C7.89426316 25.43755095 2.01788933 45.39215802 -6.19921875 60.3046875 C-7.18921875 60.3046875 -8.17921875 60.3046875 -9.19921875 60.3046875 C-9.225 59.36109375 -9.25078125 58.4175 -9.27734375 57.4453125 C-10.03639212 40.26321758 -16.15742996 27.25278405 -26.5625 13.6171875 C-28.19921875 11.3046875 -28.19921875 11.3046875 -29.19921875 8.3046875 C-26.31536819 2.68052646 -21.4261983 -0.04014467 -15.6484375 -2.03515625 C-9.72011743 -3.6330607 -5.27232584 -2.96888251 0 0 Z " fill="#D03769" transform="translate(225.19921875,107.6953125)"/>
<path d="M0 0 C0.99 0 1.98 0 3 0 C4.6875 2 4.6875 2 6 4 C5.67 4.66 5.34 5.32 5 6 C4.67 6 4.34 6 4 6 C4.24339111 6.83313721 4.24339111 6.83313721 4.49169922 7.68310547 C5.04686807 10.21363017 5.129489 12.48035977 5.1328125 15.0703125 C5.13410156 16.05 5.13539063 17.0296875 5.13671875 18.0390625 C5.13285156 19.05742187 5.12898438 20.07578125 5.125 21.125 C5.13080078 22.61773437 5.13080078 22.61773437 5.13671875 24.140625 C5.12365802 34.14514539 4.99890535 42.18878687 0 51 C-0.64187644 52.31661124 -1.27343744 53.63830201 -1.89453125 54.96484375 C-9.35362902 70.50623364 -9.35362902 70.50623364 -15 76 C-15.66 76 -16.32 76 -17 76 C-17.226875 76.556875 -17.45375 77.11375 -17.6875 77.6875 C-19.38617978 80.68041199 -21.42072687 82.73527237 -24 85 C-24.99 85 -25.98 85 -27 85 C-27 85.66 -27 86.32 -27 87 C-28.98 87.99 -30.96 88.98 -33 90 C-31.50620948 86.50658514 -29.47405695 84.30946191 -26.8125 81.625 C-14.73110925 68.34128785 -10.22858871 50.56988284 -8.73266602 33.10913086 C-7.70355113 21.60497025 -5.26639591 10.34470626 0 0 Z " fill="#DF3241" transform="translate(190,125)"/>
<path d="M0 0 C0.495 0.99 0.495 0.99 1 2 C0.04798315 4.29530765 -0.96551963 6.46344916 -2.0859375 8.67578125 C-2.41824371 9.34868195 -2.75054993 10.02158264 -3.09292603 10.71487427 C-3.8083152 12.16294619 -4.52697831 13.6094043 -5.24853516 15.05441284 C-7.13019439 18.82634641 -8.98439517 22.61164844 -10.8359375 26.3984375 C-11.20176941 27.14618942 -11.56760132 27.89394135 -11.94451904 28.66435242 C-14.79603145 34.51999554 -17.47732926 40.4321373 -20 46.4375 C-20.34522705 47.25847168 -20.6904541 48.07944336 -21.04614258 48.92529297 C-21.70930998 50.50941072 -22.3709094 52.09418601 -23.03076172 53.6796875 C-30.24091397 70.94046509 -38.16786399 86.40379944 -50 101 C-50.66 100.67 -51.32 100.34 -52 100 C-50.83984375 98.5459375 -50.83984375 98.5459375 -49.65625 97.0625 C-42.43917334 87.84397105 -36.77730495 78.67151436 -32 68 C-31.6709668 67.27619141 -31.34193359 66.55238281 -31.00292969 65.80664062 C-26.90733236 57.11606055 -26.90733236 57.11606055 -24 48 C-25.00675781 48.56847656 -26.01351562 49.13695312 -27.05078125 49.72265625 C-42.06369573 58.03044067 -61.36077316 68.20267456 -79 67 C-74.37795091 64.49639008 -69.30049345 62 -64 62 C-64 61.34 -64 60.68 -64 60 C-58 57 -58 57 -55.1171875 55.625 C-50.01511376 52.96527234 -45.58173129 49.45993188 -41 46 C-40.21753906 45.42636719 -39.43507812 44.85273438 -38.62890625 44.26171875 C-23.299491 32.60309096 -8.54526977 17.40536527 0 0 Z " fill="#DE2B0F" transform="translate(164,110)"/>
<path d="M0 0 C8.87009843 3.773249 14.38856814 13.70633995 17.93359375 22.25 C20.94912773 30.56075394 21.27941054 38.47449953 20.1875 47.1875 C20.0627832 48.33895508 20.0627832 48.33895508 19.93554688 49.51367188 C19.42023582 53.90321931 18.57275623 57.83916389 17 62 C16.56429687 61.60167969 16.12859375 61.20335937 15.6796875 60.79296875 C15.08414063 60.26316406 14.48859375 59.73335937 13.875 59.1875 C13.29492188 58.66542969 12.71484375 58.14335938 12.1171875 57.60546875 C9.56930335 55.67340162 6.88614734 54.36131312 4 53 C4.30035156 51.79085937 4.60070312 50.58171875 4.91015625 49.3359375 C9.16772354 31.37938963 7.49240115 17.85790258 0 1 C0 0.67 0 0.34 0 0 Z " fill="#E68D12" transform="translate(155,27)"/>
<path d="M0 0 C0 0.66 0 1.32 0 2 C-1.64333504 3.03789581 -3.31243867 4.03567924 -5 5 C-5.66 5.66 -6.32 6.32 -7 7 C-5.948125 7.03867188 -5.948125 7.03867188 -4.875 7.078125 C3.17762724 7.55953206 8.35091898 9.32400725 14.8125 14.0625 C19.79668328 20.75554612 20.5690409 28.45084341 19.51953125 36.55859375 C18.84758043 39.71625738 17.6466459 42.23363489 16 45 C15.31471955 46.65910004 14.64108137 48.32332564 14 50 C13.34 50 12.68 50 12 50 C11.505 45.05 11.505 45.05 11 40 C10.34 40 9.68 40 9 40 C9 39.34 9 38.68 9 38 C8.34 38 7.68 38 7 38 C6.27296875 36.45892578 6.27296875 36.45892578 5.53125 34.88671875 C1.77620861 27.075288 -2.07630757 19.98272242 -7.43359375 13.13671875 C-9 11 -9 11 -10 8 C-8.85546875 6.2109375 -8.85546875 6.2109375 -7.1875 4.375 C-6.64480469 3.76398438 -6.10210937 3.15296875 -5.54296875 2.5234375 C-3.66953524 0.67371834 -2.65390687 0 0 0 Z " fill="#DE302D" transform="translate(206,108)"/>
<path d="M0 0 C3.89842534 3.42106713 6.06804659 7.28234888 8.4375 11.8125 C8.83074463 12.56007568 9.22398926 13.30765137 9.62915039 14.07788086 C13.25867059 21.17143251 15.81458061 28.34184971 18 36 C18.24492187 36.84820312 18.48984375 37.69640625 18.7421875 38.5703125 C19.62838225 41.86015877 20 44.56343491 20 48 C17.40125125 47.55450021 15.19408057 47.0942677 12.8125 45.9375 C5.90335262 43.63445087 0.27332335 44.52946022 -6.25 47.625 C-11.00953167 50.20103518 -14.48837257 52.90310133 -18 57 C-22.57897343 54.94351415 -25.90165454 51.92795708 -29 48 C-29.625 45.1875 -29.625 45.1875 -29 43 C-28.01 42.34 -27.02 41.68 -26 41 C-26.4640625 42.2684375 -26.4640625 42.2684375 -26.9375 43.5625 C-27.35489043 46.95443528 -27.35489043 46.95443528 -25.5078125 48.95703125 C-23.72574808 50.71404657 -21.91321952 52.3873611 -20 54 C-17.14053687 52.69174889 -14.99552749 51.25124967 -12.6875 49.125 C-4.64273706 42.21497204 0.41255123 41.42684488 11 42 C11 42.66 11 43.32 11 44 C12.98 44 14.96 44 17 44 C16.07464311 40.60073894 15.13258715 37.20632358 14.1875 33.8125 C13.92646484 32.85279297 13.66542969 31.89308594 13.39648438 30.90429688 C12.06977531 26.17072998 10.79582874 22.10317401 8 18 C7.54625 16.88625 7.0925 15.7725 6.625 14.625 C5.07169444 11.15993375 3.35382656 8.59956734 0.98828125 5.67578125 C0 4 0 4 0 0 Z " fill="#9D4623" transform="translate(210,53)"/>
<path d="M0 0 C-1.14597656 0.556875 -2.29195312 1.11375 -3.47265625 1.6875 C-17.11867002 8.4812107 -23.49873803 14.24474286 -28.73828125 28.609375 C-30 32 -30 32 -31.06640625 33.93359375 C-32.55981412 37.23908648 -33.02323751 40.76025916 -33.625 44.3125 C-33.82609375 45.41368164 -33.82609375 45.41368164 -34.03125 46.53710938 C-35.61212143 54.42347307 -35.61212143 54.42347307 -34 62 C-31.69 60.02 -29.38 58.04 -27 56 C-26.34 56.33 -25.68 56.66 -25 57 C-25.44730469 57.38929687 -25.89460938 57.77859375 -26.35546875 58.1796875 C-31.40783166 62.8550084 -34.25799918 67.7199336 -37 74 C-37.33 74 -37.66 74 -38 74 C-39.06080255 68.32203525 -38.91936937 63.23050193 -38.3125 57.5 C-38.17376465 56.17995972 -38.17376465 56.17995972 -38.03222656 54.83325195 C-37.1234298 46.94005105 -35.49094831 39.5632754 -33 32 C-32.79391113 31.36191406 -32.58782227 30.72382812 -32.37548828 30.06640625 C-28.23792321 17.5639658 -22.04121146 8.72251102 -10.359375 2.15625 C-3.54691689 -1.18230563 -3.54691689 -1.18230563 0 0 Z " fill="#266088" transform="translate(43,51)"/>
<path d="M0 0 C1.22223439 4.30540842 0.39200393 5.91720897 -1.69140625 9.78125 C-6.93184222 18.66652651 -12.6764707 26.74834487 -21 33 C-21.66 33 -22.32 33 -23 33 C-23 33.66 -23 34.32 -23 35 C-25.64 35.99 -28.28 36.98 -31 38 C-8.65732647 38.48478665 -8.65732647 38.48478665 12.984375 33.48828125 C15.33543608 32.91874126 16.73130316 33.23865804 19 34 C1.39425627 39.68461318 -15.50399216 42.35733433 -34 40 C-34 39.01 -34 38.02 -34 37 C-33.2265625 36.6596875 -32.453125 36.319375 -31.65625 35.96875 C-15.87236179 28.62377232 -7.37852273 15.29858841 0 0 Z " fill="#912925" transform="translate(138,188)"/>
<path d="M0 0 C3.28462619 3.07271482 4.83961428 4.96741938 5.203125 9.57421875 C5.46021175 26.64906352 1.25935332 44.01080323 -7 59 C-7.99 59 -8.98 59 -10 59 C-10.06058594 57.99839844 -10.12117187 56.99679688 -10.18359375 55.96484375 C-10.26808405 54.62238669 -10.35272768 53.27993928 -10.4375 51.9375 C-10.55931641 49.97103516 -10.55931641 49.97103516 -10.68359375 47.96484375 C-10.97898249 44.26336762 -11.43265388 40.66629552 -12 37 C-11.67 37.66 -11.34 38.32 -11 39 C-10.34 39 -9.68 39 -9 39 C-8.67 42.3 -8.34 45.6 -8 49 C-7.01 48.505 -7.01 48.505 -6 48 C-5.53005474 46.32162407 -5.06521717 44.6415623 -4.6328125 42.953125 C-3.79104401 40.3550741 -2.33745857 38.19018848 -0.94433594 35.85693359 C2.3501004 29.37878395 2.31416324 21.85073235 2.25 14.75 C2.25773438 13.87859375 2.26546875 13.0071875 2.2734375 12.109375 C2.25979885 7.63589638 2.11426682 4.06073468 0 0 Z " fill="#973455" transform="translate(226,109)"/>
<path d="M0 0 C14.13541654 0.05642881 28.82207877 4.92490952 41 12 C40.34 12.33 39.68 12.66 39 13 C37.22485352 12.31933594 37.22485352 12.31933594 35.06640625 11.234375 C29.82959896 8.79591775 24.55989498 7.49420432 18.9375 6.25 C17.97650391 6.02957031 17.01550781 5.80914063 16.02539062 5.58203125 C13.68532129 5.04649299 11.34370989 4.51932841 9 4 C9 4.66 9 5.32 9 6 C9.73605469 6.24492187 10.47210938 6.48984375 11.23046875 6.7421875 C14.30006284 8.13627678 15.99905253 9.6939196 18.3125 12.125 C19.00988281 12.84945313 19.70726562 13.57390625 20.42578125 14.3203125 C21.20501953 15.15175781 21.20501953 15.15175781 22 16 C21.67 16.99 21.34 17.98 21 19 C20.57332031 18.5153125 20.14664063 18.030625 19.70703125 17.53125 C14.53297812 11.9838116 9.11804008 8.43431109 2.5625 4.76171875 C1.716875 4.18035156 0.87125 3.59898438 0 3 C0 2.01 0 1.02 0 0 Z " fill="#CD4148" transform="translate(130,6)"/>
<path d="M0 0 C-0.97582031 0.47050781 -1.95164062 0.94101563 -2.95703125 1.42578125 C-4.24234508 2.05436539 -5.52749267 2.68328952 -6.8125 3.3125 C-7.45509766 3.62123047 -8.09769531 3.92996094 -8.75976562 4.24804688 C-13.4708286 6.40827009 -13.4708286 6.40827009 -17 10 C-19.75220832 27.23229533 -9.31291683 44.1690386 -0.71484375 58.3984375 C-0.47894531 58.92695313 -0.24304688 59.45546875 0 60 C-0.33 60.66 -0.66 61.32 -1 62 C-5.87925414 55.89701009 -9.41779897 49.47458696 -12.75 42.4375 C-13.12632568 41.64690186 -13.50265137 40.85630371 -13.89038086 40.04174805 C-18.714074 29.64405733 -22.89583401 18.96354352 -18.75 7.5625 C-14.17110511 3.29580249 -6.46641028 -2.62697918 0 0 Z " fill="#AF3D3A" transform="translate(28,122)"/>
<path d="M0 0 C4.10257815 3.48627157 5.94347513 7.51397476 8.125 12.3125 C8.47175781 13.04662109 8.81851563 13.78074219 9.17578125 14.53710938 C14.25104669 25.4946269 16.29607446 38.05036694 13 49.9375 C9.61998703 58.16432401 2.8435793 64.58216639 -4 70 C-1.92501025 65.00116106 2.02423818 61.53249216 5.6875 57.65625 C12.69275813 49.60966972 11.58481247 38.30745704 11.17919922 28.19335938 C10.80377406 23.59823728 9.24556478 19.96557184 7 16 C6.48308594 15.05511719 5.96617187 14.11023438 5.43359375 13.13671875 C4.4017029 11.25942335 3.34909556 9.39325998 2.26953125 7.54296875 C0.99720933 4.99441008 0.41798217 2.80501287 0 0 Z " fill="#8D3256" transform="translate(196,131)"/>
<path d="M0 0 C0.66 0.33 1.32 0.66 2 1 C-0.31 3.31 -2.62 5.62 -5 8 C-3.55625 7.54625 -2.1125 7.0925 -0.625 6.625 C1.2479054 6.07613467 3.1229285 5.53444397 5 5 C6.0828125 4.68095703 6.0828125 4.68095703 7.1875 4.35546875 C16.22617777 2.1119398 25.75669996 2.82509039 35 3 C35 3.33 35 3.66 35 4 C34.27522461 4.06993164 33.55044922 4.13986328 32.80371094 4.21191406 C29.45088993 4.54367586 26.10062022 4.89672809 22.75 5.25 C21.04070313 5.41435547 21.04070313 5.41435547 19.296875 5.58203125 C11.42652245 6.43167158 4.3875262 8.16624041 -3 11 C-3.91040039 11.29680664 -4.82080078 11.59361328 -5.75878906 11.89941406 C-8.43508671 12.8919421 -8.43508671 12.8919421 -9.3125 16.625 C-9.6528125 18.295625 -9.6528125 18.295625 -10 20 C-10.66 20 -11.32 20 -12 20 C-10.92581064 11.40648512 -6.25627861 5.62362122 0 0 Z " fill="#353029" transform="translate(18,107)"/>
<path d="M0 0 C0.33 0 0.66 0 1 0 C1.8050305 10.86791176 2.15313688 21.72789904 2.25 32.625 C2.27126953 33.82157227 2.29253906 35.01814453 2.31445312 36.25097656 C2.37014775 50.40934654 2.37014775 50.40934654 -2.60449219 55.70947266 C-3.06500977 56.13534668 -3.52552734 56.5612207 -4 57 C-3.7848877 56.4220166 -3.56977539 55.8440332 -3.34814453 55.24853516 C-0.33576898 45.98386126 -0.69525666 36.99032265 -0.875 27.375 C-0.91036532 24.90233431 -0.94116723 22.42973028 -0.96633911 19.9569397 C-0.98297702 18.43078997 -1.00581719 16.90468872 -1.03634644 15.37875366 C-1.10844698 10.17300474 -0.65238719 5.16627008 0 0 Z " fill="#272726" transform="translate(720,92)"/>
<path d="M0 0 C0 0.99 0 1.98 0 3 C0.52379603 6.36820735 1.58938814 7.93474634 4.0625 10.25 C4.61035156 10.77078125 5.15820312 11.2915625 5.72265625 11.828125 C6.14417969 12.21484375 6.56570312 12.6015625 7 13 C9.85946313 11.69174889 12.00447251 10.25124967 14.3125 8.125 C22.35726294 1.21497204 27.41255123 0.42684488 38 1 C38 1.66 38 2.32 38 3 C39.32 3.33 40.64 3.66 42 4 C41.34 4.33 40.68 4.66 40 5 C39.01 4.67 38.02 4.34 37 4 C28.49365119 2.72485473 22.11819224 5.45908426 15 10 C12.72193409 11.8870546 10.93271007 13.74517159 9 16 C4.42397942 13.94484031 1.09179277 10.93038862 -2 7 C-2.5625 4.1875 -2.5625 4.1875 -2 2 C-1.34 1.34 -0.68 0.68 0 0 Z " fill="#94471D" transform="translate(183,94)"/>
<path d="M0 0 C0.33 0.66 0.66 1.32 1 2 C0.01315106 4.3763919 -1.03593717 6.62827121 -2.19140625 8.921875 C-2.53372787 9.61831116 -2.8760495 10.31474731 -3.22874451 11.0322876 C-4.33254467 13.27529528 -5.44682708 15.51287722 -6.5625 17.75 C-8.00609987 20.65910663 -9.44470771 23.57062225 -10.87890625 26.484375 C-11.22974274 27.19638062 -11.58057922 27.90838623 -11.94204712 28.64196777 C-15.20971193 35.32649017 -18.1563952 42.12505065 -21 49 C-22.20907496 45.45858043 -22.03433482 45.07375628 -20.3125 41.375 C-19.93996094 40.68792969 -19.56742188 40.00085938 -19.18359375 39.29296875 C-17.4986325 36.02870388 -16.23306276 32.63000405 -14.9296875 29.19921875 C-14 27 -14 27 -12 24 C-12.103125 23.13375 -12.20625 22.2675 -12.3125 21.375 C-11.89053006 16.81772469 -9.76844693 14.82997317 -6.890625 11.390625 C-4.09705606 7.85826097 -2.05013253 3.99634129 0 0 Z " fill="#902D16" transform="translate(164,110)"/>
<path d="M0 0 C5.81633437 6.37027097 6.27688622 13.96695963 6.3125 22.125 C6.31789795 22.88893066 6.3232959 23.65286133 6.32885742 24.43994141 C6.26824854 29.30867931 5.53821723 33.37921994 4 38 C-1.02692063 37.54300722 -4.14896261 35.00758252 -8 32 C-6.68 31.67 -5.36 31.34 -4 31 C-4.66 30.34 -5.32 29.68 -6 29 C-5.67 28.01 -5.34 27.02 -5 26 C-2 29.625 -2 29.625 -2 33 C-0.68 33 0.64 33 2 33 C2.66 33 3.32 33 4 33 C4.05455124 30.33305052 4.09393392 27.66724502 4.125 25 C4.14175781 24.25621094 4.15851563 23.51242188 4.17578125 22.74609375 C4.22786721 16.75620853 3.59614667 11.19229333 0.875 5.75 C0 4 0 4 0 0 Z " fill="#347E8F" transform="translate(150,35)"/>
<path d="M0 0 C-17.60574373 5.68461318 -34.50399216 8.35733433 -53 6 C-53 5.01 -53 4.02 -53 3 C-51.68 2.67 -50.36 2.34 -49 2 C-49.33 2.66 -49.66 3.32 -50 4 C-27.65732647 4.48478665 -27.65732647 4.48478665 -6.015625 -0.51171875 C-3.66456392 -1.08125874 -2.26869684 -0.76134196 0 0 Z " fill="#7D2D48" transform="translate(157,222)"/>
<path d="M0 0 C1.24821301 3.74463903 0.40589489 6.34203668 -0.4375 10.0625 C-2.33120708 19.06836237 -2.28632489 27.83760367 -2 37 C-1.67 37 -1.34 37 -1 37 C-0.9729957 38.45823212 -0.95360213 39.91660675 -0.9375 41.375 C-0.92589844 42.18710938 -0.91429687 42.99921875 -0.90234375 43.8359375 C-1 46 -1 46 -2 48 C-2.66 48 -3.32 48 -4 48 C-4.04989482 43.19858265 -4.08595085 38.39732031 -4.10986328 33.59570312 C-4.1198449 31.96644457 -4.13343499 30.33720356 -4.15087891 28.70800781 C-4.3817389 6.57260835 -4.3817389 6.57260835 0 0 Z " fill="#7B211E" transform="translate(182,124)"/>
<path d="M0 0 C-2.51066469 3.05906926 -4.90059933 3.75191278 -8.6875 4.6875 C-9.68136719 4.93886719 -10.67523438 5.19023438 -11.69921875 5.44921875 C-12.45847656 5.63097656 -13.21773437 5.81273438 -14 6 C-14.495 5.01 -14.495 5.01 -15 4 C-17.46709946 3.67764614 -19.83717874 3.48281638 -22.31640625 3.3671875 C-23.41298805 3.30484421 -23.41298805 3.30484421 -24.53172302 3.24124146 C-26.87492093 3.11011606 -29.21857932 2.99242369 -31.5625 2.875 C-33.14783472 2.78864187 -34.7331223 2.70141368 -36.31835938 2.61328125 C-40.21176367 2.39874126 -44.1056326 2.1962486 -48 2 C-48 1.67 -48 1.34 -48 1 C-46.30472168 1.00785522 -46.30472168 1.00785522 -44.57519531 1.01586914 C-40.37826328 1.03398226 -36.18133469 1.04545512 -31.984375 1.05493164 C-30.16861388 1.05995741 -28.3528568 1.06677903 -26.53710938 1.07543945 C-23.9257711 1.08758189 -21.31448638 1.09324591 -18.703125 1.09765625 C-17.89256653 1.10281754 -17.08200806 1.10797882 -16.24688721 1.11329651 C-10.69248099 1.11384817 -5.54904286 -0.12611461 0 0 Z " fill="#D06D40" transform="translate(127,98)"/>
<path d="M0 0 C0.87462891 0.00451172 1.74925781 0.00902344 2.65039062 0.01367188 C4.78779047 0.02535166 6.92515463 0.04328311 9.0625 0.0625 C9.0625 0.3925 9.0625 0.7225 9.0625 1.0625 C8.10472656 1.08828125 7.14695313 1.1140625 6.16015625 1.140625 C-2.26746157 1.46669673 -10.10107088 2.53219034 -18.26342773 4.69042969 C-21.91250345 5.64736281 -25.15848025 6.28997497 -28.9375 6.0625 C-28.9375 6.7225 -28.9375 7.3825 -28.9375 8.0625 C-31.25 9.75 -31.25 9.75 -33.9375 11.0625 C-34.9275 10.7325 -35.9175 10.4025 -36.9375 10.0625 C-26.49289129 1.31817643 -13.18242311 -0.13032053 0 0 Z " fill="#39627F" transform="translate(54.9375,95.9375)"/>
<path d="M0 0 C0.66 0.33 1.32 0.66 2 1 C-3.41619485 5.89455313 -8.83911411 10.76924844 -14.40625 15.4921875 C-16.23369102 17.10873629 -16.23369102 17.10873629 -18 20 C-17.40832031 19.7834375 -16.81664062 19.566875 -16.20703125 19.34375 C-8.35852373 16.57820738 -8.35852373 16.57820738 -4 17 C-6.95566597 18.51204208 -9.94134439 19.89596402 -13 21.1875 C-13.845625 21.55230469 -14.69125 21.91710937 -15.5625 22.29296875 C-18.19995359 23.05799936 -19.45517596 22.92485503 -22 22 C-18.09155866 12.73869336 -7.77143346 5.9195174 0 0 Z " fill="#225863" transform="translate(54,24)"/>
<path d="M0 0 C0.99 0 1.98 0 3 0 C4.6875 2 4.6875 2 6 4 C5.67 4.66 5.34 5.32 5 6 C3.68 5.01 2.36 4.02 1 3 C-2.84527089 10.58827394 -4.21240918 18.55279931 -5.60449219 26.86206055 C-5.75821289 27.75320557 -5.91193359 28.64435059 -6.0703125 29.5625 C-6.20195801 30.36816406 -6.33360352 31.17382812 -6.46923828 32.00390625 C-7 34 -7 34 -9 36 C-8.21815906 27.32973403 -6.98122363 19.04973998 -4.5 10.6875 C-4.28641846 9.96506104 -4.07283691 9.24262207 -3.8527832 8.49829102 C-2.86172414 5.29538045 -1.87279514 2.80919272 0 0 Z " fill="#7C241C" transform="translate(190,125)"/>
<path d="M0 0 C4.29369342 0.10472423 6.62674261 1.1971101 9.6875 4.0625 C15.27410227 10.13006803 17.29304685 17.79468832 17 26 C16.01171875 28.296875 16.01171875 28.296875 15 30 C14.91363281 29.02160156 14.82726562 28.04320312 14.73828125 27.03515625 C13.59160484 15.70219652 13.59160484 15.70219652 8 6 C5.9267756 4.40757903 3.88035128 3.1026639 1.57421875 1.875 C1.05472656 1.58625 0.53523437 1.2975 0 1 C0 0.67 0 0.34 0 0 Z " fill="#272726" transform="translate(811,106)"/>
<path d="M0 0 C0.66 0.33 1.32 0.66 2 1 C1.01 2.485 1.01 2.485 0 4 C2.64 4 5.28 4 8 4 C2.58623751 9.41376249 -9.55353888 9.3580637 -17 10 C-16.21496094 9.63455078 -16.21496094 9.63455078 -15.4140625 9.26171875 C-11.66605572 7.30280906 -8.14406861 4.96395325 -4.6015625 2.65820312 C-3.10407549 1.71196994 -1.55485564 0.84867457 0 0 Z " fill="#C63478" transform="translate(154,215)"/>
<path d="M0 0 C0.33 0.66 0.66 1.32 1 2 C1.66 2 2.32 2 3 2 C3.67286212 4.41509441 4.33846012 6.83180356 5 9.25 C5.19078125 9.93191406 5.3815625 10.61382812 5.578125 11.31640625 C6.49957044 14.70600912 7 17.45778976 7 21 C5.35 20.67 3.7 20.34 2 20 C1.67 19.01 1.34 18.02 1 17 C1.99 17 2.98 17 4 17 C3.71125 16.02417969 3.4225 15.04835938 3.125 14.04296875 C2.74978981 12.75787385 2.37480138 11.47271419 2 10.1875 C1.443125 8.29064453 1.443125 8.29064453 0.875 6.35546875 C0 3 0 3 0 0 Z " fill="#BD4621" transform="translate(223,80)"/>
<path d="M0 0 C-21.37931034 8.72413793 -21.37931034 8.72413793 -32 8 C-30.66666667 7.33333333 -29.33333333 6.66666667 -28 6 C-27.38769531 5.65453125 -26.77539062 5.3090625 -26.14453125 4.953125 C-23.76767838 3.89674595 -22.02544783 3.73585114 -19.4375 3.625 C-14.31319963 3.22965338 -10.06945127 1.71243291 -5.34765625 -0.2578125 C-3 -1 -3 -1 0 0 Z " fill="#EB2F38" transform="translate(117,169)"/>
<path d="M0 0 C-0.96421875 0.44730469 -1.9284375 0.89460938 -2.921875 1.35546875 C-4.19822973 1.96549123 -5.47425417 2.57620513 -6.75 3.1875 C-7.38421875 3.47947266 -8.0184375 3.77144531 -8.671875 4.07226562 C-12.80277493 6.07317028 -15.57133897 7.95223161 -18 12 C-18.68867803 15.10884372 -18.68867803 15.10884372 -18.75 18.3125 C-18.80671875 19.38113281 -18.8634375 20.44976562 -18.921875 21.55078125 C-18.96054687 22.76314453 -18.96054687 22.76314453 -19 24 C-19.33 24 -19.66 24 -20 24 C-20.60543338 12.66494179 -20.60543338 12.66494179 -18.75 7.5625 C-14.17110511 3.29580249 -6.46641028 -2.62697918 0 0 Z " fill="#7E3724" transform="translate(28,122)"/>
<path d="M0 0 C0.66 0.33 1.32 0.66 2 1 C1.54109375 1.43570313 1.0821875 1.87140625 0.609375 2.3203125 C-3.17320201 5.99163724 -6.18207526 9.55634945 -9 14 C-9.33 14 -9.66 14 -10 14 C-10 9.71 -10 5.42 -10 1 C-9.01 1.99 -8.02 2.98 -7 4 C-7 4.66 -7 5.32 -7 6 C-4.69 4.02 -2.38 2.04 0 0 Z " fill="#1E66A2" transform="translate(16,107)"/>
<path d="M0 0 C0.33 0.66 0.66 1.32 1 2 C1.66 2 2.32 2 3 2 C3.13277344 3.13179687 3.26554688 4.26359375 3.40234375 5.4296875 C3.5805342 6.91148179 3.75893029 8.39325136 3.9375 9.875 C4.02451172 10.62136719 4.11152344 11.36773437 4.20117188 12.13671875 C4.63326063 16.1953231 4.63326063 16.1953231 6 20 C5.67 20.66 5.34 21.32 5 22 C4.01 22 3.02 22 2 22 C1.93941406 20.99839844 1.87882813 19.99679688 1.81640625 18.96484375 C1.73191595 17.62238669 1.64727232 16.27993928 1.5625 14.9375 C1.48128906 13.62652344 1.40007812 12.31554687 1.31640625 10.96484375 C1.02101751 7.26336762 0.56734612 3.66629552 0 0 Z " fill="#7C2C39" transform="translate(214,146)"/>
<path d="M0 0 C0.66 0.33 1.32 0.66 2 1 C-0.31 3.31 -2.62 5.62 -5 8 C-4.67 8.66 -4.34 9.32 -4 10 C-5.32 10.33 -6.64 10.66 -8 11 C-8.33 13.64 -8.66 16.28 -9 19 C-9.99 19.33 -10.98 19.66 -12 20 C-10.92581064 11.40648512 -6.25627861 5.62362122 0 0 Z " fill="#393E39" transform="translate(18,107)"/>
<path d="M0 0 C0.33 0 0.66 0 1 0 C1 3.3 1 6.6 1 10 C8.26 10 15.52 10 23 10 C23 10.33 23 10.66 23 11 C15.41 11 7.82 11 0 11 C-0.66 8.03 -1.32 5.06 -2 2 C-1.34 1.34 -0.68 0.68 0 0 Z " fill="#212120" transform="translate(721,163)"/>
<path d="M0 0 C8.54633577 1.14213704 16.34879603 4.08394567 24 8 C24.33 8.66 24.66 9.32 25 10 C21.98487159 8.99795285 18.97204599 7.99046614 15.96484375 6.96484375 C14.96582031 6.62582031 13.96679688 6.28679688 12.9375 5.9375 C11.93589844 5.59589844 10.93429688 5.25429687 9.90234375 4.90234375 C7.27423338 4.08525964 4.70702776 3.48180127 2 3 C2 2.34 2 1.68 2 1 C1.34 0.67 0.68 0.34 0 0 Z " fill="#8B3132" transform="translate(146,9)"/>
<path d="M0 0 C4.10056743 0.52241086 6.1752561 1.63500616 9.1875 4.4375 C9.86167969 5.05496094 10.53585938 5.67242188 11.23046875 6.30859375 C12.50177392 7.52377066 13.75644225 8.75644225 15 10 C14.67 10.99 14.34 11.98 14 13 C13.49210938 12.46890625 12.98421875 11.9378125 12.4609375 11.390625 C8.52564358 7.35215858 4.77509787 3.98443617 0 1 C0 0.67 0 0.34 0 0 Z " fill="#A73D37" transform="translate(137,12)"/>
<path d="M0 0 C-2.74959541 1.45909711 -5.49974721 2.91714242 -8.25 4.375 C-9.02730469 4.7875 -9.80460937 5.2 -10.60546875 5.625 C-11.73662109 6.22441406 -11.73662109 6.22441406 -12.890625 6.8359375 C-13.92751465 7.38580322 -13.92751465 7.38580322 -14.98535156 7.94677734 C-16.97869154 8.98886031 -18.98505537 10.00042943 -21 11 C-17.97706236 6.62090738 -14.65445231 4.37816517 -9.9375 2.125 C-9.00067383 1.64546875 -9.00067383 1.64546875 -8.04492188 1.15625 C-3.38876713 -1.12958904 -3.38876713 -1.12958904 0 0 Z " fill="#285775" transform="translate(43,51)"/>
<path d="M0 0 C3.89406452 1.29802151 4.19405992 2.67559288 6.0625 6.25 C6.56910156 7.20390625 7.07570313 8.1578125 7.59765625 9.140625 C8.86523401 11.72521252 9.97467415 14.31158581 11 17 C7.6488721 13.93801809 5.49333007 10.7479145 3.25 6.8125 C2.63640625 5.74644531 2.0228125 4.68039063 1.390625 3.58203125 C0 1 0 1 0 0 Z " fill="#98393A" transform="translate(17,167)"/>
<path d="M0 0 C0.99 0.33 1.98 0.66 3 1 C-3.47685525 6.87435709 -3.47685525 6.87435709 -8 7 C-8.66 6.34 -9.32 5.68 -10 5 C-9.36191406 4.72285156 -8.72382812 4.44570312 -8.06640625 4.16015625 C-7.24011719 3.79792969 -6.41382813 3.43570313 -5.5625 3.0625 C-4.73878906 2.70285156 -3.91507813 2.34320313 -3.06640625 1.97265625 C-1.05589883 1.16877677 -1.05589883 1.16877677 0 0 Z " fill="#986851" transform="translate(135,92)"/>
<path d="M0 0 C0.66 0.33 1.32 0.66 2 1 C-5.29840547 9.44646925 -5.29840547 9.44646925 -9 13 C-7.47987323 7.59510481 -3.72614782 4.01507372 0 0 Z " fill="#F6880C" transform="translate(196,88)"/>
<path d="M0 0 C0.66 0.33 1.32 0.66 2 1 C1.67566492 6.35152885 -1.49704824 9.28280043 -5 13 C-5.66 12.01 -6.32 11.02 -7 10 C-6.01 9.67 -5.02 9.34 -4 9 C-2.79117904 6.99983534 -2.79117904 6.99983534 -2 5 C-1.34 5 -0.68 5 0 5 C0 3.35 0 1.7 0 0 Z " fill="#357088" transform="translate(145,79)"/>
<path d="M0 0 C5.00284542 0.47646147 8.03079315 1.93288562 12 5 C12.99 6.485 12.99 6.485 14 8 C9.02790438 6.23570801 4.56561939 3.6060834 0 1 C0 0.67 0 0.34 0 0 Z " fill="#286E80" transform="translate(128,58)"/>
<path d="M0 0 C0.99 0.66 1.98 1.32 3 2 C3 2.66 3 3.32 3 4 C2.34 4 1.68 4 1 4 C0.95101562 4.71027344 0.90203125 5.42054687 0.8515625 6.15234375 C0.77679688 7.07144531 0.70203125 7.99054687 0.625 8.9375 C0.52058594 10.31228516 0.52058594 10.31228516 0.4140625 11.71484375 C0.27742187 12.46894531 0.14078125 13.22304688 0 14 C-0.99 14.495 -0.99 14.495 -2 15 C-2.04241723 12.66705225 -2.04092937 10.33297433 -2 8 C-1.67 7.67 -1.34 7.34 -1 7 C-0.63239269 4.67182036 -0.29758419 2.3381615 0 0 Z " fill="#E48C15" transform="translate(201,44)"/>
<path d="M0 0 C4.29425875 1.07356469 4.74740471 1.5084773 7 5 C5.68 4.34 4.36 3.68 3 3 C2.34 5.31 1.68 7.62 1 10 C0.67 10 0.34 10 0 10 C0 6.7 0 3.4 0 0 Z " fill="#91511E" transform="translate(199,42)"/>
<path d="M0 0 C1.91731918 0.11455681 3.8338675 0.24206258 5.75 0.375 C7.35101563 0.47941406 7.35101563 0.47941406 8.984375 0.5859375 C11.80206432 0.9728223 13.5830366 1.55686166 16 3 C15.15695313 2.98839844 14.31390625 2.97679687 13.4453125 2.96484375 C12.34960938 2.95582031 11.25390625 2.94679688 10.125 2.9375 C9.03445312 2.92589844 7.94390625 2.91429687 6.8203125 2.90234375 C4.04822454 2.80255697 4.04822454 2.80255697 2 4 C1.34 3.67 0.68 3.34 0 3 C0 2.01 0 1.02 0 0 Z " fill="#822E39" transform="translate(130,6)"/>
<path d="M0 0 C0.66 0.33 1.32 0.66 2 1 C1.01 2.485 1.01 2.485 0 4 C2.64 4 5.28 4 8 4 C4.99382731 7.00617269 2.17618402 6.59585316 -2 7 C-2.66 5.68 -3.32 4.36 -4 3 C-2.68 2.01 -1.36 1.02 0 0 Z " fill="#B6336D" transform="translate(154,215)"/>
<path d="M0 0 C0.66 0.33 1.32 0.66 2 1 C-1.75 5.875 -1.75 5.875 -4 7 C-5.99960012 7.039992 -8.00047242 7.04346799 -10 7 C-9.01 6.67 -8.02 6.34 -7 6 C-7 5.34 -7 4.68 -7 4 C-5.5459375 3.2884375 -5.5459375 3.2884375 -4.0625 2.5625 C-1.19522563 1.29806053 -1.19522563 1.29806053 0 0 Z " fill="#EE3610" transform="translate(107,166)"/>
<path d="M0 0 C0.33 0 0.66 0 1 0 C1.45356243 6.46326465 0.59378942 9.60931587 -3 15 C-4.57156655 11.8568669 -3.11705576 9.634536 -2.0625 6.375 C-1.68222656 5.18648437 -1.30195312 3.99796875 -0.91015625 2.7734375 C-0.60980469 1.85820312 -0.30945313 0.94296875 0 0 Z " fill="#232321" transform="translate(720,134)"/>
<path d="M0 0 C0.33 0 0.66 0 1 0 C1.10841951 1.91541138 1.18578079 3.83259773 1.25 5.75 C1.29640625 6.81734375 1.3428125 7.8846875 1.390625 8.984375 C1 12 1 12 -3 16 C-2.01 10.72 -1.02 5.44 0 0 Z " fill="#8B4E1A" transform="translate(198,52)"/>
<path d="M0 0 C0.66 0.33 1.32 0.66 2 1 C0.68 1.33 -0.64 1.66 -2 2 C-2 2.66 -2 3.32 -2 4 C-4.3125 5.6875 -4.3125 5.6875 -7 7 C-7.99 6.67 -8.98 6.34 -10 6 C-8.89932004 5.18278283 -7.79430269 4.37140549 -6.6875 3.5625 C-6.07261719 3.11003906 -5.45773438 2.65757813 -4.82421875 2.19140625 C-3 1 -3 1 0 0 Z " fill="#2E5C79" transform="translate(28,100)"/>
<path d="M0 0 C0.95465783 2.16967689 1.14401212 3.56328793 0.3984375 5.82421875 C-0.35870385 7.5684743 -1.17609198 9.28627131 -2 11 C-2.33 11 -2.66 11 -3 11 C-3 8.69 -3 6.38 -3 4 C-2.34 3.67 -1.68 3.34 -1 3 C-0.67 2.01 -0.34 1.02 0 0 Z " fill="#CE356C" transform="translate(221,154)"/>
<path d="M0 0 C0.66 0.66 1.32 1.32 2 2 C2.66 2.33 3.32 2.66 4 3 C-2.625 6.125 -2.625 6.125 -6 5 C-5.34 5 -4.68 5 -4 5 C-4 4.34 -4 3.68 -4 3 C-2 1.375 -2 1.375 0 0 Z " fill="#BD2635" transform="translate(119,218)"/>
<path d="M0 0 C-1 3 -1 3 -4.3125 4.75 C-7.93653994 5.97848812 -8.6258971 6.10235591 -12 5 C-10.37750059 4.16180842 -8.75191503 3.3295884 -7.125 2.5 C-6.22007812 2.0359375 -5.31515625 1.571875 -4.3828125 1.09375 C-2 0 -2 0 0 0 Z " fill="#C3243E" transform="translate(135,214)"/>
<path d="M0 0 C0.33 0.66 0.66 1.32 1 2 C1.66 2 2.32 2 3 2 C3.33 4.64 3.66 7.28 4 10 C3.34 10 2.68 10 2 10 C1.34 6.7 0.68 3.4 0 0 Z " fill="#982D39" transform="translate(214,146)"/>
<path d="M0 0 C-2.17424117 2.50037734 -3.73045798 3.43628586 -7 4 C-7 3.34 -7 2.68 -7 2 C-7.99 1.67 -8.98 1.34 -10 1 C-6.61981469 -0.04005702 -3.5219721 -0.08004482 0 0 Z " fill="#DA7137" transform="translate(127,98)"/>
<path d="M0 0 C3.67230705 3.07999946 4.56802365 5.2482602 5 10 C2.08772731 6.71195019 0.50298788 4.40114397 0 0 Z " fill="#AF5920" transform="translate(210,53)"/>
<path d="M0 0 C3.5875213 1.33250791 6.8364623 2.830717 10 5 C10 5.66 10 6.32 10 7 C5.56541027 5.6062718 3.12621626 3.39417765 0 0 Z " fill="#913659" transform="translate(48,204)"/>
<path d="M0 0 C0.99 0.33 1.98 0.66 3 1 C3.33 3.31 3.66 5.62 4 8 C0 3.375 0 3.375 0 0 Z " fill="#191918" transform="translate(821,113)"/>
<path d="M0 0 C1.76462683 3.08809695 2 4.23312136 2 8 C0.35 7.67 -1.3 7.34 -3 7 C-2.01 6.67 -1.02 6.34 0 6 C0 4.02 0 2.04 0 0 Z " fill="#863823" transform="translate(228,93)"/>
</svg>
